<svg width="65" height="72" viewBox="0 0 65 72" version="1.1" xmlns="http://www.w3.org/2000/svg" xmlns:xlink="http://www.w3.org/1999/xlink">
<g id="Canvas" fill="none">
<g id="right-arrow (5)">
<g id="Vector">
<path d="M 39.6002 15.1568L 25.0669 0.641759C 24.652 0.227426 24.0991 5.48458e-08 23.5095 5.48458e-08C 22.9193 5.48458e-08 22.3667 0.227753 21.9518 0.641759L 20.6323 1.95991C 20.2177 2.37359 19.9894 2.92615 19.9894 3.5153C 19.9894 4.10412 20.2177 4.6753 20.6323 5.08898L 29.1108 13.5753L 2.17411 13.5753C 0.959618 13.5753 0 14.5249 0 15.7381L 0 17.6017C 0 18.8149 0.959618 19.8602 2.17411 19.8602L 29.207 19.8602L 20.6326 28.3939C 20.2181 28.8083 19.9897 29.3458 19.9897 29.9349C 19.9897 30.5234 20.2181 31.0688 20.6326 31.4828L 21.9521 32.7967C 22.367 33.211 22.9196 33.4368 23.5098 33.4368C 24.0994 33.4368 24.6523 33.2081 25.0672 32.7938L 39.6005 18.279C 40.0164 17.8634 40.2451 17.3086 40.2434 16.7187C 40.2447 16.127 40.0164 15.5718 39.6002 15.1568Z" transform="matrix(-0.647986 0.761652 -0.756235 -0.6543 41.3646 51.4175)" fill="white"/>
</g>
<g id="Vector_2">
<path d="M 39.6011 15.1565L 25.0674 0.641745C 24.6526 0.227421 24.0996 5.48446e-08 23.51 5.48446e-08C 22.9198 5.48446e-08 22.3672 0.227748 21.9523 0.641745L 20.6327 1.95987C 20.2182 2.37354 19.9898 2.92608 19.9898 3.51522C 19.9898 4.10403 20.2182 4.6752 20.6327 5.08887L 29.1115 13.575L 2.17416 13.575C 0.95964 13.575 0 14.5245 0 15.7378L 0 17.6013C 0 18.8145 0.95964 19.8598 2.17416 19.8598L 29.2077 19.8598L 20.6331 28.3933C 20.2185 28.8076 19.9902 29.3451 19.9902 29.9343C 19.9902 30.5228 20.2185 31.0681 20.6331 31.4821L 21.9526 32.796C 22.3675 33.2103 22.9201 33.4361 23.5104 33.4361C 24.0999 33.4361 24.6529 33.2074 25.0678 32.793L 39.6014 18.2786C 40.0173 17.863 40.246 17.3082 40.2443 16.7184C 40.2456 16.1266 40.0173 15.5715 39.6011 15.1565Z" transform="matrix(0.645931 -0.763396 0.758001 0.652254 23.6617 20.7913)" fill="white"/>
</g>
</g>
</g>
</svg>

