<?xml version="1.0" encoding="utf-8"?>
<!-- Generator: Adobe Illustrator 22.0.1, SVG Export Plug-In . SVG Version: 6.00 Build 0)  -->
<svg version="1.1" id="Слой_1" xmlns="http://www.w3.org/2000/svg" xmlns:xlink="http://www.w3.org/1999/xlink" x="0px" y="0px"
	 viewBox="0 0 17 17" style="enable-background:new 0 0 17 17;" xml:space="preserve">
<style type="text/css">
	.st0{fill:#FFFFFF;}
</style>
<path class="st0" d="M10.9,8.8c-0.2-0.2-0.2-0.4,0-0.5l5.8-5.8C16.9,2.3,17,2,17,1.9c0-0.2-0.1-0.4-0.2-0.5l-1.1-1.1
	C15.5,0.1,15.3,0,15.1,0c-0.2,0-0.4,0.1-0.5,0.2L8.8,6.1c-0.2,0.2-0.4,0.2-0.5,0L2.4,0.2C2.3,0.1,2,0,1.9,0C1.7,0,1.5,0.1,1.3,0.2
	L0.2,1.3C0.1,1.5,0,1.7,0,1.9C0,2,0.1,2.3,0.2,2.4l5.8,5.8c0.2,0.2,0.2,0.4,0,0.5l-5.8,5.8C0.1,14.7,0,15,0,15.1
	c0,0.2,0.1,0.4,0.2,0.5l1.1,1.1C1.5,16.9,1.7,17,1.9,17c0.2,0,0.4-0.1,0.5-0.2l5.8-5.8c0.2-0.2,0.4-0.2,0.5,0l5.8,5.8
	c0.2,0.2,0.4,0.2,0.5,0.2c0.2,0,0.4-0.1,0.5-0.2l1.1-1.1c0.2-0.2,0.2-0.4,0.2-0.5c0-0.2-0.1-0.4-0.2-0.5L10.9,8.8z"/>
</svg>
