<?xml version="1.0" encoding="utf-8"?>
<!-- Generator: Adobe Illustrator 22.0.1, SVG Export Plug-In . SVG Version: 6.00 Build 0)  -->
<svg version="1.1" id="Слой_1" xmlns="http://www.w3.org/2000/svg" xmlns:xlink="http://www.w3.org/1999/xlink" x="0px" y="0px"
	 viewBox="0 0 17 11" style="enable-background:new 0 0 17 11;" xml:space="preserve">
<style type="text/css">
	.st0{fill:#4D4F51;}
</style>
<path class="st0" d="M8.3,6.6L8.3,6.6c0.1,0,0.3,0,0.4-0.1l0,0c0,0,0,0,0,0L9,6.2L16.5,0c0,0,0,0-0.1,0H0.1c0,0,0,0-0.1,0l7.8,6.4
	C8,6.6,8.1,6.6,8.3,6.6z M0,0.9V10l5.6-4.5L0,0.9z M10.9,5.5l5.6,4.5V0.9L10.9,5.5z M9.1,7C8.9,7.2,8.6,7.3,8.3,7.3
	C8,7.3,7.7,7.2,7.4,7L6.2,5.9l-6.2,5v0C0,11,0,11,0.1,11h16.3c0,0,0.1,0,0.1-0.1v0L10.3,6L9.1,7z"/>
</svg>
