<?xml version="1.0" encoding="utf-8"?>
<!-- Generator: Adobe Illustrator 22.0.1, SVG Export Plug-In . SVG Version: 6.00 Build 0)  -->
<svg version="1.1" id="Слой_1" xmlns="http://www.w3.org/2000/svg" xmlns:xlink="http://www.w3.org/1999/xlink" x="0px" y="0px"
	 viewBox="0 0 9 9" style="enable-background:new 0 0 9 9;" xml:space="preserve">
<style type="text/css">
	.st0{fill:#E00512;}
</style>
<path class="st0" d="M8.8,4.9L4.9,8.8c-0.2,0.2-0.6,0.2-0.8,0C3.9,8.6,3.9,8.3,4.1,8l3.5-3.5L4.1,1c-0.2-0.2-0.2-0.6,0-0.8
	c0.2-0.2,0.6-0.2,0.8,0l3.9,3.9C9.1,4.3,9.1,4.7,8.8,4.9z"/>
<path class="st0" d="M4.9,4.9L1,8.8c-0.2,0.2-0.6,0.2-0.8,0c-0.2-0.2-0.2-0.6,0-0.8l3.5-3.5L0.2,1c-0.2-0.2-0.2-0.6,0-0.8
	c0.2-0.2,0.6-0.2,0.8,0l3.9,3.9C5.1,4.3,5.1,4.7,4.9,4.9z"/>
</svg>
