<?xml version="1.0" encoding="utf-8"?>
<!-- Generator: Adobe Illustrator 22.0.1, SVG Export Plug-In . SVG Version: 6.00 Build 0)  -->
<svg version="1.1" id="Слой_1" xmlns="http://www.w3.org/2000/svg" xmlns:xlink="http://www.w3.org/1999/xlink" x="0px" y="0px"
	 viewBox="0 0 25 25" style="enable-background:new 0 0 25 25;" xml:space="preserve">
<style type="text/css">
	.st0{fill:#FFFFFF;}
</style>
<path class="st0" d="M16.7,2.9C12.9-1,6.7-1,2.9,2.9c-3.8,3.8-3.8,10,0,13.8c3.4,3.4,8.7,3.8,12.5,1.1c0.1,0.4,0.3,0.7,0.6,1
	l5.6,5.6c0.8,0.8,2.1,0.8,2.9,0c0.8-0.8,0.8-2.1,0-2.9l-5.6-5.6c-0.3-0.3-0.7-0.5-1-0.6C20.5,11.5,20.1,6.3,16.7,2.9z M14.9,14.9
	c-2.8,2.8-7.5,2.8-10.3,0c-2.8-2.8-2.8-7.5,0-10.3c2.8-2.8,7.5-2.8,10.3,0C17.8,7.5,17.8,12.1,14.9,14.9z"/>
</svg>
